Coordinates
version=1
nRows=65
nColumns=12
inDegrees=yes

Units are S.I. units (second, meters, Newtons, ...)
Angles are in degrees

endheader
time	SC_y	SC_z	SC_x	AC_y	AC_z	AC_x	GH_y	GH_z	GH_yy	EL_x	PS_y
       0.0              -18.74         -3.213           28.7          68.66          6.782          -13.7          137.4           89.0          52.34          68.19          147.2
   0.04349              -18.74          -3.21           28.7          68.65           6.78          -13.7          137.4           89.0          52.33          68.19          147.2
   0.08698              -18.74         -3.206           28.7          68.65          6.777          -13.7          137.4           89.0          52.32          68.19          147.2
    0.1305              -18.74         -3.203           28.7          68.64          6.774          -13.7          137.4           89.0          52.31          68.19          147.2
     0.174              -18.74         -3.199           28.7          68.63          6.771          -13.7          137.4           89.0           52.3          68.19          147.2
    0.2174              -18.75         -3.194          28.69          68.63          6.767          -13.7          137.4          88.99          52.29          68.19          147.2
    0.2609              -18.75          -3.19          28.69          68.62          6.764          -13.7          137.3          88.99          52.28          68.19          147.2
    0.3044              -18.75         -3.185          28.69          68.61           6.76          -13.7          137.3          88.99          52.26          68.19          147.2
    0.3479              -18.76          -3.18          28.69           68.6          6.756          -13.7          137.3          88.99          52.25          68.19          147.2
    0.3914              -18.76         -3.174          28.69          68.59          6.751         -13.71          137.3          88.99          52.23          68.19          147.2
    0.4349              -18.76         -3.168          28.69          68.58          6.747         -13.71          137.2          88.98          52.22          68.19          147.2
    0.4784              -18.77         -3.162          28.68          68.57          6.742         -13.71          137.2          88.98           52.2          68.19          147.2
    0.5219              -18.77         -3.155          28.68          68.56          6.736         -13.71          137.2          88.98          52.18          68.19          147.2
    0.5653              -18.78         -3.147          28.68          68.55           6.73         -13.71          137.1          88.98          52.16          68.19          147.2
    0.6088              -18.78         -3.139          28.68          68.54          6.724         -13.71          137.1          88.97          52.13          68.19          147.2
    0.6523              -18.79          -3.13          28.67          68.52          6.717         -13.72          137.1          88.97          52.11          68.19          147.2
    0.6958              -18.79          -3.12          28.67           68.5          6.709         -13.72          137.0          88.97          52.08          68.19          147.2
    0.7393               -18.8          -3.11          28.67          68.49          6.701         -13.72          137.0          88.96          52.05          68.19          147.2
    0.7828              -18.81         -3.098          28.67          68.47          6.692         -13.72          136.9          88.96          52.02          68.19          147.2
    0.8263              -18.81         -3.086          28.66          68.45          6.682         -13.72          136.9          88.95          51.99          68.19          147.2
    0.8698              -18.82         -3.072          28.66          68.43          6.671         -13.73          136.8          88.95          51.95          68.19          147.3
    0.9132              -18.83         -3.057          28.65           68.4          6.659         -13.73          136.7          88.94          51.91          68.19          147.3
    0.9567              -18.84          -3.04          28.65          68.37          6.646         -13.73          136.7          88.94          51.86          68.19          147.3
       1.0              -18.85         -3.022          28.64          68.34          6.632         -13.74          136.6          88.93          51.81          68.19          147.3
     1.044              -18.87         -3.001          28.64          68.31          6.616         -13.74          136.5          88.92          51.75          68.19          147.3
     1.087              -18.88         -2.978          28.63          68.27          6.597         -13.75          136.4          88.91          51.68          68.19          147.3
     1.131               -18.9         -2.952          28.62          68.23          6.577         -13.75          136.3           88.9          51.61          68.19          147.3
     1.174              -18.92         -2.923          28.61          68.18          6.554         -13.76          136.1          88.89          51.53          68.19          147.3
     1.218              -18.94          -2.89           28.6          68.13          6.529         -13.77          136.0          88.88          51.44          68.19          147.3
     1.261              -18.96         -2.853          28.59          68.07          6.499         -13.77          135.8          88.86          51.33          68.19          147.3
     1.305              -18.98          -2.81          28.58           68.0          6.466         -13.78          135.6          88.85          51.22          68.19          147.4
     1.348              -19.01         -2.762          28.56          67.92          6.428         -13.79          135.4          88.83          51.08          68.19          147.4
     1.392              -19.05         -2.705          28.55          67.83          6.384          -13.8          135.2          88.81          50.92          68.19          147.4
     1.435              -19.09          -2.64          28.53          67.72          6.332         -13.82          134.9          88.78          50.74          68.19          147.4
     1.479              -19.14         -2.563           28.5          67.59          6.272         -13.83          134.5          88.76          50.52          68.19          147.5
     1.522              -19.19         -2.473          28.47          67.45          6.201         -13.85          134.1          88.72          50.27          68.19          147.5
     1.566              -19.26         -2.366          28.44          67.27          6.117         -13.87          133.7          88.68          49.97          68.19          147.5
     1.609              -19.34         -2.237           28.4          67.06          6.016          -13.9          133.1          88.63          49.61          68.19          147.6
     1.653              -19.44         -2.082          28.36          66.81          5.894         -13.93          132.4          88.57          49.18          68.19          147.7
     1.696              -19.55         -1.892           28.3           66.5          5.745         -13.97          131.5           88.5          48.65          68.19          147.7
      1.74               -19.7         -1.657          28.23          66.11          5.561         -14.02          130.5          88.41          47.99          68.19          147.8
     1.783              -19.88         -1.365          28.14          65.63          5.331         -14.08          129.2           88.3          47.17          68.19          148.0
     1.826              -20.11        -0.9963          28.02          65.03          5.042         -14.16          127.6          88.17          46.14          68.19          148.1
      1.87               -20.4         -0.528          27.88          64.26          4.675         -14.26          125.5          87.99          44.83          68.19          148.3
     1.913              -20.77        0.07145           27.7          63.28          4.204         -14.38          122.8          87.76          43.15          68.19          148.5
     1.957              -21.24         0.8407          27.47          62.03          3.601         -14.54          119.4          87.47           41.0          68.19          148.9
       2.0              -21.85          1.823          27.17          60.42           2.83         -14.75          115.0           87.1          38.25          68.18          149.3
     2.044              -22.61          3.059          26.79           58.4           1.86          -15.0          109.5          86.64          34.79          68.18          149.8
     2.087              -23.54          4.564          26.33          55.93         0.6783         -15.32          102.8          86.07          30.58          68.18          150.4
     2.131              -24.62           6.31           25.8          53.08        -0.6914         -15.68          94.97          85.42           25.7          68.17          151.1
     2.174              -25.79          8.199          25.22          49.99         -2.174         -16.07          86.54           84.7          20.41          68.17          151.9
     2.218              -26.96          10.09          24.65           46.9         -3.657         -16.47          78.12          83.99          15.12          68.17          152.6
     2.261              -28.04          11.83          24.12          44.04         -5.027         -16.83          70.33          83.34          10.24          68.16          153.3
     2.305              -28.97          13.34          23.66          41.58         -6.209         -17.14          63.62          82.77          6.028          68.16          154.0
     2.348              -29.73          14.58          23.28          39.56         -7.178          -17.4          58.11           82.3          2.572          68.16          154.5
     2.392              -30.34          15.56          22.98          37.95         -7.949          -17.6          53.73          81.93        -0.1777          68.16          154.9
     2.435              -30.82          16.33          22.75          36.69         -8.553         -17.76           50.3          81.64          -2.33          68.16          155.2
     2.479              -31.19          16.93          22.56          35.71         -9.024         -17.89          47.63          81.42         -4.007          68.15          155.4
     2.522              -31.48          17.39          22.42          34.94         -9.391         -17.99          45.54          81.24         -5.318          68.15          155.6
     2.566              -31.71          17.76          22.31          34.34          -9.68         -18.06          43.89           81.1         -6.348          68.15          155.8
     2.609              -31.89          18.06          22.22          33.86          -9.91         -18.12          42.59          80.99         -7.167          68.15          155.9
     2.653              -32.03          18.29          22.15          33.48         -10.09         -18.17          41.54          80.91         -7.823          68.15          156.0
     2.696              -32.15          18.48          22.09          33.17         -10.24         -18.21           40.7          80.83         -8.354          68.15          156.1
      2.74              -32.25          18.64          22.04          32.91         -10.37         -18.24           40.0          80.78          -8.79          68.15          156.1
     2.783              -32.32          18.76           22.0           32.7         -10.47         -18.27          39.43          80.73         -9.149          68.15          156.2
